<?xml version="1.0" encoding="utf-8"?>
<!-- Generator: Adobe Illustrator 24.3.0, SVG Export Plug-In . SVG Version: 6.00 Build 0)  -->
<svg version="1.1" id="Layer_1" xmlns="http://www.w3.org/2000/svg" xmlns:xlink="http://www.w3.org/1999/xlink" x="0px" y="0px"
	 width="128.9px" height="145.7px" viewBox="0 0 128.9 145.7" style="enable-background:new 0 0 128.9 145.7;" xml:space="preserve"
	>
<style type="text/css">
	.st0{fill:#FF004F;}
	.st1{fill:#FFFFFF;}
	.st2{fill:#00F2EA;}
</style>
<g>
	<path class="st0" d="M95.6,52.6c9.4,6.7,20.9,10.7,33.4,10.7v-24c-2.4,0-4.7-0.2-7-0.7v18.8c-12.4,0-24-4-33.4-10.7v48.9
		c0,24.4-19.8,44.2-44.3,44.2c-9.1,0-17.6-2.8-24.6-7.5c8,8.2,19.2,13.3,31.7,13.3c24.5,0,44.3-19.8,44.3-44.2L95.6,52.6L95.6,52.6z
		 M104.2,28.4c-4.8-5.2-8-12-8.6-19.5V5.8H89C90.6,15.4,96.3,23.5,104.2,28.4L104.2,28.4z M35.1,113.6c-2.7-3.5-4.1-7.8-4.1-12.3
		c0-11.2,9.1-20.2,20.3-20.2c2.1,0,4.2,0.3,6.1,0.9V57.6c-2.3-0.3-4.7-0.5-7-0.4v19c-2-0.6-4.1-0.9-6.1-0.9C33,75.3,24,84.4,24,95.5
		C24,103.4,28.5,110.3,35.1,113.6z"/>
	<path class="st1" d="M88.5,46.8c9.4,6.7,20.9,10.7,33.4,10.7V38.6c-6.9-1.5-13.1-5.1-17.7-10.2c-7.9-4.9-13.6-13.1-15.3-22.6H71.5
		v95.6c0,11.1-9.1,20.2-20.3,20.2c-6.6,0-12.4-3.1-16.1-8C28.5,110.3,24,103.4,24,95.5c0-11.2,9.1-20.2,20.3-20.2
		c2.1,0,4.2,0.3,6.1,0.9v-19C26.3,57.7,7,77.3,7,101.4c0,12,4.8,23,12.6,30.9c7,4.7,15.5,7.5,24.6,7.5c24.4,0,44.3-19.8,44.3-44.2
		V46.8L88.5,46.8z"/>
	<path class="st2" d="M121.9,38.6v-5.1c-6.3,0-12.4-1.7-17.7-5.1C108.9,33.6,115.1,37.1,121.9,38.6z M88.9,5.8
		c-0.2-0.9-0.3-1.8-0.4-2.7V0h-24v95.6c0,11.1-9.1,20.2-20.3,20.2c-3.3,0-6.4-0.8-9.1-2.2c3.7,4.9,9.5,8,16.1,8
		c11.2,0,20.2-9,20.3-20.2V5.8H88.9z M50.3,57.2v-5.4c-2-0.3-4-0.4-6.1-0.4C19.8,51.4,0,71.2,0,95.6c0,15.3,7.8,28.8,19.6,36.8
		c-7.8-8-12.6-18.9-12.6-30.9C7,77.3,26.3,57.7,50.3,57.2z"/>
</g>
</svg>
