<?xml version="1.0" encoding="utf-8"?>
<!-- Generator: Adobe Illustrator 24.3.0, SVG Export Plug-In . SVG Version: 6.00 Build 0)  -->
<svg version="1.1" id="Layer_1" xmlns="http://www.w3.org/2000/svg" xmlns:xlink="http://www.w3.org/1999/xlink" x="0px" y="0px"
	 width="163.3px" height="114.3px" viewBox="0 0 163.3 114.3" style="enable-background:new 0 0 163.3 114.3;" xml:space="preserve"
	>
<style type="text/css">
	.st0{fill:#FF0000;}
	.st1{fill:#FFFFFF;}
</style>
<g transform="matrix(5.715038, 0, 0, 5.715038, 409.288757, 277.787231)">
	<g>
		<path class="st0" d="M-43.6-45.5c-0.3-1.2-1.3-2.2-2.5-2.5c-2.2-0.6-11.2-0.6-11.2-0.6s-8.9,0-11.2,0.6c-1.2,0.3-2.2,1.3-2.5,2.5
			c-0.6,2.2-0.6,6.9-0.6,6.9s0,4.6,0.6,6.9c0.3,1.2,1.3,2.2,2.5,2.5c2.2,0.6,11.2,0.6,11.2,0.6s8.9,0,11.2-0.6
			c1.2-0.3,2.2-1.3,2.5-2.5C-43-34-43-38.6-43-38.6S-43-43.3-43.6-45.5z"/>
		<path class="st1" d="M-60.2-34.3l7.4-4.3l-7.4-4.3V-34.3z"/>
	</g>
</g>
</svg>
