<?xml version="1.0" encoding="utf-8"?>
<!-- Generator: Adobe Illustrator 24.3.0, SVG Export Plug-In . SVG Version: 6.00 Build 0)  -->
<svg version="1.1" id="Layer_1" xmlns="http://www.w3.org/2000/svg" xmlns:xlink="http://www.w3.org/1999/xlink" x="0px" y="0px"
	 width="404.4px" height="124.7px" viewBox="0 0 404.4 124.7" style="enable-background:new 0 0 404.4 124.7;" xml:space="preserve"
	>
<style type="text/css">
	.st0{opacity:0.925;fill:#FFFFFF;}
	.st1{opacity:0.42;}
	.st2{fill:none;stroke:#DDDDDD;stroke-width:0.31;stroke-miterlimit:10;}
	.st3{fill:none;stroke:#F4F4F4;stroke-width:0.31;stroke-miterlimit:10;}
</style>
<rect class="st0" width="404.4" height="124.7"/>
<g class="st1">
	<line class="st2" x1="0" y1="1.7" x2="404.4" y2="1.7"/>
	<line class="st2" x1="0" y1="1.7" x2="404.4" y2="1.7"/>
	<line class="st2" x1="0" y1="4.7" x2="404.4" y2="4.7"/>
	<line class="st2" x1="0" y1="7.6" x2="404.4" y2="7.6"/>
	<line class="st2" x1="0" y1="10.6" x2="404.4" y2="10.6"/>
	<line class="st2" x1="0" y1="13.5" x2="404.4" y2="13.5"/>
	<line class="st2" x1="0" y1="16.5" x2="404.4" y2="16.5"/>
	<line class="st2" x1="0" y1="19.5" x2="404.4" y2="19.5"/>
	<line class="st2" x1="0" y1="22.4" x2="404.4" y2="22.4"/>
	<line class="st2" x1="0" y1="25.4" x2="404.4" y2="25.4"/>
	<line class="st2" x1="0" y1="28.3" x2="404.4" y2="28.3"/>
	<line class="st2" x1="0" y1="31.3" x2="404.4" y2="31.3"/>
	<line class="st2" x1="0" y1="34.2" x2="404.4" y2="34.2"/>
	<line class="st2" x1="0" y1="37.2" x2="404.4" y2="37.2"/>
	<line class="st2" x1="0" y1="40.2" x2="404.4" y2="40.2"/>
	<line class="st2" x1="0" y1="43.1" x2="404.4" y2="43.1"/>
	<line class="st2" x1="0" y1="46.1" x2="404.4" y2="46.1"/>
	<line class="st2" x1="0" y1="49" x2="404.4" y2="49"/>
	<line class="st2" x1="0" y1="52" x2="404.4" y2="52"/>
	<line class="st2" x1="0" y1="55" x2="404.4" y2="55"/>
	<line class="st2" x1="0" y1="57.9" x2="404.4" y2="57.9"/>
	<line class="st2" x1="0" y1="60.9" x2="404.4" y2="60.9"/>
	<line class="st2" x1="0" y1="63.8" x2="404.4" y2="63.8"/>
	<line class="st2" x1="0" y1="66.8" x2="404.4" y2="66.8"/>
	<line class="st2" x1="0" y1="69.8" x2="404.4" y2="69.8"/>
	<line class="st2" x1="0" y1="72.7" x2="404.4" y2="72.7"/>
	<line class="st2" x1="0" y1="75.7" x2="404.4" y2="75.7"/>
	<line class="st2" x1="0" y1="78.6" x2="404.4" y2="78.6"/>
	<line class="st2" x1="0" y1="81.6" x2="404.4" y2="81.6"/>
	<line class="st2" x1="0" y1="84.6" x2="404.4" y2="84.6"/>
	<line class="st2" x1="0" y1="87.5" x2="404.4" y2="87.5"/>
	<line class="st2" x1="0" y1="90.5" x2="404.4" y2="90.5"/>
	<line class="st2" x1="0" y1="93.4" x2="404.4" y2="93.4"/>
	<line class="st2" x1="0" y1="96.4" x2="404.4" y2="96.4"/>
	<line class="st2" x1="0" y1="99.4" x2="404.4" y2="99.4"/>
	<line class="st2" x1="0" y1="102.3" x2="404.4" y2="102.3"/>
	<line class="st2" x1="0" y1="105.3" x2="404.4" y2="105.3"/>
	<line class="st2" x1="0" y1="108.2" x2="404.4" y2="108.2"/>
	<line class="st2" x1="0" y1="111.2" x2="404.4" y2="111.2"/>
	<line class="st2" x1="0" y1="114.2" x2="404.4" y2="114.2"/>
	<line class="st2" x1="0" y1="117.1" x2="404.4" y2="117.1"/>
	<line class="st2" x1="0" y1="120.1" x2="404.4" y2="120.1"/>
	<line class="st2" x1="0" y1="123" x2="404.4" y2="123"/>
</g>
<g>
	<line class="st3" x1="0" y1="1.7" x2="404.4" y2="1.7"/>
	<line class="st3" x1="0" y1="1.7" x2="404.4" y2="1.7"/>
	<line class="st3" x1="0" y1="4.7" x2="404.4" y2="4.7"/>
	<line class="st3" x1="0" y1="7.6" x2="404.4" y2="7.6"/>
	<line class="st3" x1="0" y1="10.6" x2="404.4" y2="10.6"/>
	<line class="st3" x1="0" y1="13.5" x2="404.4" y2="13.5"/>
	<line class="st3" x1="0" y1="16.5" x2="404.4" y2="16.5"/>
	<line class="st3" x1="0" y1="19.5" x2="404.4" y2="19.5"/>
	<line class="st3" x1="0" y1="22.4" x2="404.4" y2="22.4"/>
	<line class="st3" x1="0" y1="25.4" x2="404.4" y2="25.4"/>
	<line class="st3" x1="0" y1="28.3" x2="404.4" y2="28.3"/>
	<line class="st3" x1="0" y1="31.3" x2="404.4" y2="31.3"/>
	<line class="st3" x1="0" y1="34.2" x2="404.4" y2="34.2"/>
	<line class="st3" x1="0" y1="37.2" x2="404.4" y2="37.2"/>
	<line class="st3" x1="0" y1="40.2" x2="404.4" y2="40.2"/>
	<line class="st3" x1="0" y1="43.1" x2="404.4" y2="43.1"/>
	<line class="st3" x1="0" y1="46.1" x2="404.4" y2="46.1"/>
	<line class="st3" x1="0" y1="49" x2="404.4" y2="49"/>
	<line class="st3" x1="0" y1="52" x2="404.4" y2="52"/>
	<line class="st3" x1="0" y1="55" x2="404.4" y2="55"/>
	<line class="st3" x1="0" y1="57.9" x2="404.4" y2="57.9"/>
	<line class="st3" x1="0" y1="60.9" x2="404.4" y2="60.9"/>
	<line class="st3" x1="0" y1="63.8" x2="404.4" y2="63.8"/>
	<line class="st3" x1="0" y1="66.8" x2="404.4" y2="66.8"/>
	<line class="st3" x1="0" y1="69.8" x2="404.4" y2="69.8"/>
	<line class="st3" x1="0" y1="72.7" x2="404.4" y2="72.7"/>
	<line class="st3" x1="0" y1="75.7" x2="404.4" y2="75.7"/>
	<line class="st3" x1="0" y1="78.6" x2="404.4" y2="78.6"/>
	<line class="st3" x1="0" y1="81.6" x2="404.4" y2="81.6"/>
	<line class="st3" x1="0" y1="84.6" x2="404.4" y2="84.6"/>
	<line class="st3" x1="0" y1="87.5" x2="404.4" y2="87.5"/>
	<line class="st3" x1="0" y1="90.5" x2="404.4" y2="90.5"/>
	<line class="st3" x1="0" y1="93.4" x2="404.4" y2="93.4"/>
	<line class="st3" x1="0" y1="96.4" x2="404.4" y2="96.4"/>
	<line class="st3" x1="0" y1="99.4" x2="404.4" y2="99.4"/>
	<line class="st3" x1="0" y1="102.3" x2="404.4" y2="102.3"/>
	<line class="st3" x1="0" y1="105.3" x2="404.4" y2="105.3"/>
	<line class="st3" x1="0" y1="108.2" x2="404.4" y2="108.2"/>
	<line class="st3" x1="0" y1="111.2" x2="404.4" y2="111.2"/>
	<line class="st3" x1="0" y1="114.2" x2="404.4" y2="114.2"/>
	<line class="st3" x1="0" y1="117.1" x2="404.4" y2="117.1"/>
	<line class="st3" x1="0" y1="120.1" x2="404.4" y2="120.1"/>
	<line class="st3" x1="0" y1="123" x2="404.4" y2="123"/>
</g>
<g class="st1">
	<line class="st2" x1="0" y1="3.1" x2="404.4" y2="3.1"/>
	<line class="st2" x1="0" y1="3.1" x2="404.4" y2="3.1"/>
	<line class="st2" x1="0" y1="6.1" x2="404.4" y2="6.1"/>
	<line class="st2" x1="0" y1="9" x2="404.4" y2="9"/>
	<line class="st2" x1="0" y1="12" x2="404.4" y2="12"/>
	<line class="st2" x1="0" y1="14.9" x2="404.4" y2="14.9"/>
	<line class="st2" x1="0" y1="17.9" x2="404.4" y2="17.9"/>
	<line class="st2" x1="0" y1="20.9" x2="404.4" y2="20.9"/>
	<line class="st2" x1="0" y1="23.8" x2="404.4" y2="23.8"/>
	<line class="st2" x1="0" y1="26.8" x2="404.4" y2="26.8"/>
	<line class="st2" x1="0" y1="29.7" x2="404.4" y2="29.7"/>
	<line class="st2" x1="0" y1="32.7" x2="404.4" y2="32.7"/>
	<line class="st2" x1="0" y1="35.6" x2="404.4" y2="35.6"/>
	<line class="st2" x1="0" y1="38.6" x2="404.4" y2="38.6"/>
	<line class="st2" x1="0" y1="41.6" x2="404.4" y2="41.6"/>
	<line class="st2" x1="0" y1="44.5" x2="404.4" y2="44.5"/>
	<line class="st2" x1="0" y1="47.5" x2="404.4" y2="47.5"/>
	<line class="st2" x1="0" y1="50.4" x2="404.4" y2="50.4"/>
	<line class="st2" x1="0" y1="53.4" x2="404.4" y2="53.4"/>
	<line class="st2" x1="0" y1="56.4" x2="404.4" y2="56.4"/>
	<line class="st2" x1="0" y1="59.3" x2="404.4" y2="59.3"/>
	<line class="st2" x1="0" y1="62.3" x2="404.4" y2="62.3"/>
	<line class="st2" x1="0" y1="65.2" x2="404.4" y2="65.2"/>
	<line class="st2" x1="0" y1="68.2" x2="404.4" y2="68.2"/>
	<line class="st2" x1="0" y1="71.2" x2="404.4" y2="71.2"/>
	<line class="st2" x1="0" y1="74.1" x2="404.4" y2="74.1"/>
	<line class="st2" x1="0" y1="77.1" x2="404.4" y2="77.1"/>
	<line class="st2" x1="0" y1="80" x2="404.4" y2="80"/>
	<line class="st2" x1="0" y1="83" x2="404.4" y2="83"/>
	<line class="st2" x1="0" y1="86" x2="404.4" y2="86"/>
	<line class="st2" x1="0" y1="88.9" x2="404.4" y2="88.9"/>
	<line class="st2" x1="0" y1="91.9" x2="404.4" y2="91.9"/>
	<line class="st2" x1="0" y1="94.8" x2="404.4" y2="94.8"/>
	<line class="st2" x1="0" y1="97.8" x2="404.4" y2="97.8"/>
	<line class="st2" x1="0" y1="100.8" x2="404.4" y2="100.8"/>
	<line class="st2" x1="0" y1="103.8" x2="404.4" y2="103.8"/>
	<line class="st2" x1="0" y1="106.8" x2="404.4" y2="106.8"/>
	<line class="st2" x1="0" y1="109.6" x2="404.4" y2="109.6"/>
	<line class="st2" x1="0" y1="112.6" x2="404.4" y2="112.6"/>
	<line class="st2" x1="0" y1="115.6" x2="404.4" y2="115.6"/>
	<line class="st2" x1="0" y1="118.5" x2="404.4" y2="118.5"/>
	<line class="st2" x1="0" y1="121.5" x2="404.4" y2="121.5"/>
	<line class="st2" x1="0" y1="124.4" x2="404.4" y2="124.4"/>
</g>
</svg>
