<?xml version="1.0" encoding="utf-8"?>
<!-- Generator: Adobe Illustrator 24.3.0, SVG Export Plug-In . SVG Version: 6.00 Build 0)  -->
<svg version="1.1" id="Layer_1" xmlns="http://www.w3.org/2000/svg" xmlns:xlink="http://www.w3.org/1999/xlink" x="0px" y="0px"
	 width="633.8px" height="18.1px" viewBox="0 0 633.8 18.1" style="enable-background:new 0 0 633.8 18.1;" xml:space="preserve">
<style type="text/css">
	.st0{fill:#FFFFFF;}
</style>
<g>
	<path class="st0" d="M0,0.2h4c3.3,0,5.8,0.6,5.8,5c0,4.3-2.6,5.3-5.8,5.3H2.6v7.3H0V0.2z M4.4,8.6c2.4,0,3-1.3,3-3.4
		c0-3-1.6-3.1-2.9-3.1H2.6v6.5H4.4z"/>
	<path class="st0" d="M14.8,0.2h2.9L22,17.8h-2.3l-1.1-4.6h-4.7l-1.1,4.6h-2.3L14.8,0.2z M18.1,11.5l-1.6-6.6l-0.2-3.1h-0.1L16,4.9
		l-1.6,6.6H18.1z"/>
	<path class="st0" d="M24,0.2h4c3.3,0,5.8,0.6,5.8,5c0,4.3-2.6,5.3-5.8,5.3h-1.4v7.3H24V0.2z M28.4,8.6c2.4,0,3-1.3,3-3.4
		c0-3-1.6-3.1-2.9-3.1h-1.9v6.5H28.4z"/>
	<path class="st0" d="M36.1,0.2h8.5v1.9h-6.1v5.3h5.8v1.9h-5.8v6.5h6.1v1.9h-8.5V0.2z"/>
	<path class="st0" d="M47.1,11.8h2.4c0.1,2.5,1.1,4.3,2.6,4.4c1.4,0.1,2.6-0.5,2.6-3c0-1.5-0.7-2.2-3.1-3.5
		c-2.6-1.4-3.9-2.3-3.8-5.1C47.8,1.7,50,0,52.7,0c1.9,0,4.6,1.2,4.4,4.9h-2.4c-0.1-1.6-0.7-2.9-2-3c-1.9-0.1-2.5,1.1-2.5,2.7
		c0,2.2,1.9,2.4,4,3.7c1.8,1.2,3,2.2,2.9,5.2c-0.1,3.4-2.3,4.6-5,4.6C49.1,18.1,47.2,15.8,47.1,11.8z"/>
	<path class="st0" d="M62.3,14.2H66v3.7h-3.7V14.2z"/>
	<path class="st0" d="M74.8,0.2h2.9L82,17.8h-2.3l-1.1-4.6h-4.7l-1.1,4.6h-2.3L74.8,0.2z M78.1,11.5l-1.6-6.6l-0.2-3.1h-0.1L76,4.9
		l-1.6,6.6H78.1z"/>
	<path class="st0" d="M83.6,0.2h3.5c4,0,6.1,0.8,6.1,4.7c0,1.7-0.7,3.2-3.1,3.6v0.1c2.6,0.3,3,2.2,3,6.6v2.6h-2.2l-0.2-0.7v-1.8
		c0-3.7-0.2-5.5-3.2-5.5H86v8h-2.4V0.2z M87.4,8c3.1,0,3.4-1.3,3.4-3c0-1.6-0.4-2.8-3.1-2.8H86V8H87.4z"/>
	<path class="st0" d="M99,2.2h-4.4V0.2h11.3v1.9h-4.4l0,15.7H99L99,2.2z"/>
	<path class="st0" d="M132,0.2h4c3.3,0,5.8,0.6,5.8,5c0,4.3-2.6,5.3-5.8,5.3h-1.4v7.3H132V0.2z M136.4,8.6c2.4,0,3-1.3,3-3.4
		c0-3-1.6-3.1-2.9-3.1h-1.9v6.5H136.4z"/>
	<path class="st0" d="M146.8,0.2h2.9l4.3,17.6h-2.3l-1.1-4.6h-4.7l-1.1,4.6h-2.3L146.8,0.2z M150.1,11.5l-1.6-6.6l-0.2-3.1h-0.1
		L148,4.9l-1.6,6.6H150.1z"/>
	<path class="st0" d="M156,0.2h4c3.3,0,5.8,0.6,5.8,5c0,4.3-2.6,5.3-5.8,5.3h-1.4v7.3H156V0.2z M160.4,8.6c2.4,0,3-1.3,3-3.4
		c0-3-1.6-3.1-2.9-3.1h-1.9v6.5H160.4z"/>
	<path class="st0" d="M168.1,0.2h8.5v1.9h-6.1v5.3h5.8v1.9h-5.8v6.5h6.1v1.9h-8.5V0.2z"/>
	<path class="st0" d="M179.1,11.8h2.4c0.1,2.5,1.1,4.3,2.6,4.4c1.4,0.1,2.6-0.5,2.6-3c0-1.5-0.7-2.2-3.1-3.5
		c-2.6-1.4-3.9-2.3-3.8-5.1c0.1-2.9,2.2-4.6,4.9-4.6c1.9,0,4.6,1.2,4.4,4.9h-2.4c-0.1-1.6-0.7-2.9-2-3c-1.9-0.1-2.5,1.1-2.5,2.7
		c0,2.2,1.9,2.4,4,3.7c1.8,1.2,3,2.2,2.9,5.2c-0.1,3.4-2.3,4.6-5,4.6C181.1,18.1,179.2,15.8,179.1,11.8z"/>
	<path class="st0" d="M194.3,14.2h3.7v3.7h-3.7V14.2z"/>
	<path class="st0" d="M206.8,0.2h2.9l4.3,17.6h-2.3l-1.1-4.6h-4.7l-1.1,4.6h-2.3L206.8,0.2z M210.1,11.5l-1.6-6.6l-0.2-3.1h-0.1
		L208,4.9l-1.6,6.6H210.1z"/>
	<path class="st0" d="M215.6,0.2h3.5c4,0,6.1,0.8,6.1,4.7c0,1.7-0.7,3.2-3.1,3.6v0.1c2.6,0.3,3,2.2,3,6.6v2.6h-2.2l-0.2-0.7v-1.8
		c0-3.7-0.2-5.5-3.2-5.5H218v8h-2.4V0.2z M219.4,8c3.1,0,3.4-1.3,3.4-3c0-1.6-0.4-2.8-3.1-2.8H218V8H219.4z"/>
	<path class="st0" d="M231,2.2h-4.4V0.2h11.3v1.9h-4.4l0,15.7H231L231,2.2z"/>
	<path class="st0" d="M264,0.2h4c3.3,0,5.8,0.6,5.8,5c0,4.3-2.6,5.3-5.8,5.3h-1.4v7.3H264V0.2z M268.4,8.6c2.4,0,3-1.3,3-3.4
		c0-3-1.6-3.1-2.9-3.1h-1.9v6.5H268.4z"/>
	<path class="st0" d="M278.8,0.2h2.9l4.3,17.6h-2.3l-1.1-4.6h-4.7l-1.1,4.6h-2.3L278.8,0.2z M282.1,11.5l-1.6-6.6l-0.2-3.1h-0.1
		L280,4.9l-1.6,6.6H282.1z"/>
	<path class="st0" d="M288,0.2h4c3.3,0,5.8,0.6,5.8,5c0,4.3-2.6,5.3-5.8,5.3h-1.4v7.3H288V0.2z M292.4,8.6c2.4,0,3-1.3,3-3.4
		c0-3-1.6-3.1-2.9-3.1h-1.9v6.5H292.4z"/>
	<path class="st0" d="M300.1,0.2h8.5v1.9h-6.1v5.3h5.8v1.9h-5.8v6.5h6.1v1.9h-8.5V0.2z"/>
	<path class="st0" d="M311.1,11.8h2.4c0.1,2.5,1.1,4.3,2.6,4.4c1.4,0.1,2.6-0.5,2.6-3c0-1.5-0.7-2.2-3.1-3.5
		c-2.6-1.4-3.9-2.3-3.8-5.1c0.1-2.9,2.2-4.6,4.9-4.6c1.9,0,4.6,1.2,4.4,4.9h-2.4c-0.1-1.6-0.7-2.9-2-3c-1.9-0.1-2.5,1.1-2.5,2.7
		c0,2.2,1.9,2.4,4,3.7c1.8,1.2,3,2.2,2.9,5.2c-0.1,3.4-2.3,4.6-5,4.6C313.1,18.1,311.2,15.8,311.1,11.8z"/>
	<path class="st0" d="M326.3,14.2h3.7v3.7h-3.7V14.2z"/>
	<path class="st0" d="M338.8,0.2h2.9l4.3,17.6h-2.3l-1.1-4.6h-4.7l-1.1,4.6h-2.3L338.8,0.2z M342.1,11.5l-1.6-6.6l-0.2-3.1h-0.1
		L340,4.9l-1.6,6.6H342.1z"/>
	<path class="st0" d="M347.6,0.2h3.5c4,0,6.1,0.8,6.1,4.7c0,1.7-0.7,3.2-3.1,3.6v0.1c2.6,0.3,3,2.2,3,6.6v2.6h-2.2l-0.2-0.7v-1.8
		c0-3.7-0.2-5.5-3.2-5.5H350v8h-2.4V0.2z M351.4,8c3.1,0,3.4-1.3,3.4-3c0-1.6-0.4-2.8-3.1-2.8H350V8H351.4z"/>
	<path class="st0" d="M363,2.2h-4.4V0.2h11.3v1.9h-4.4l0,15.7H363L363,2.2z"/>
	<path class="st0" d="M396,0.2h4c3.3,0,5.8,0.6,5.8,5c0,4.3-2.6,5.3-5.8,5.3h-1.4v7.3H396V0.2z M400.4,8.6c2.4,0,3-1.3,3-3.4
		c0-3-1.6-3.1-2.9-3.1h-1.9v6.5H400.4z"/>
	<path class="st0" d="M410.8,0.2h2.9l4.3,17.6h-2.3l-1.1-4.6h-4.7l-1.1,4.6h-2.3L410.8,0.2z M414.1,11.5l-1.6-6.6l-0.2-3.1h-0.1
		L412,4.9l-1.6,6.6H414.1z"/>
	<path class="st0" d="M420,0.2h4c3.3,0,5.8,0.6,5.8,5c0,4.3-2.6,5.3-5.8,5.3h-1.4v7.3H420V0.2z M424.4,8.6c2.4,0,3-1.3,3-3.4
		c0-3-1.6-3.1-2.9-3.1h-1.9v6.5H424.4z"/>
	<path class="st0" d="M432.1,0.2h8.5v1.9h-6.1v5.3h5.8v1.9h-5.8v6.5h6.1v1.9h-8.5V0.2z"/>
	<path class="st0" d="M443.1,11.8h2.4c0.1,2.5,1.1,4.3,2.6,4.4c1.4,0.1,2.6-0.5,2.6-3c0-1.5-0.7-2.2-3.1-3.5
		c-2.6-1.4-3.9-2.3-3.8-5.1c0.1-2.9,2.2-4.6,4.9-4.6c1.9,0,4.6,1.2,4.4,4.9h-2.4c-0.1-1.6-0.7-2.9-2-3c-1.9-0.1-2.5,1.1-2.5,2.7
		c0,2.2,1.9,2.4,4,3.7c1.8,1.2,3,2.2,2.9,5.2c-0.1,3.4-2.3,4.6-5,4.6C445.1,18.1,443.2,15.8,443.1,11.8z"/>
	<path class="st0" d="M458.3,14.2h3.7v3.7h-3.7V14.2z"/>
	<path class="st0" d="M470.8,0.2h2.9l4.3,17.6h-2.3l-1.1-4.6h-4.7l-1.1,4.6h-2.3L470.8,0.2z M474.1,11.5l-1.6-6.6l-0.2-3.1h-0.1
		L472,4.9l-1.6,6.6H474.1z"/>
	<path class="st0" d="M479.6,0.2h3.5c4,0,6.1,0.8,6.1,4.7c0,1.7-0.7,3.2-3.1,3.6v0.1c2.6,0.3,3,2.2,3,6.6v2.6h-2.2l-0.2-0.7v-1.8
		c0-3.7-0.2-5.5-3.2-5.5H482v8h-2.4V0.2z M483.4,8c3.1,0,3.4-1.3,3.4-3c0-1.6-0.4-2.8-3.1-2.8H482V8H483.4z"/>
	<path class="st0" d="M495,2.2h-4.4V0.2h11.3v1.9h-4.4l0,15.7H495L495,2.2z"/>
	<path class="st0" d="M528,0.2h4c3.3,0,5.8,0.6,5.8,5c0,4.3-2.6,5.3-5.8,5.3h-1.4v7.3H528V0.2z M532.4,8.6c2.4,0,3-1.3,3-3.4
		c0-3-1.6-3.1-2.9-3.1h-1.9v6.5H532.4z"/>
	<path class="st0" d="M542.8,0.2h2.9l4.3,17.6h-2.3l-1.1-4.6h-4.7l-1.1,4.6h-2.3L542.8,0.2z M546.1,11.5l-1.6-6.6l-0.2-3.1h-0.1
		L544,4.9l-1.6,6.6H546.1z"/>
	<path class="st0" d="M552,0.2h4c3.3,0,5.8,0.6,5.8,5c0,4.3-2.6,5.3-5.8,5.3h-1.4v7.3H552V0.2z M556.4,8.6c2.4,0,3-1.3,3-3.4
		c0-3-1.6-3.1-2.9-3.1h-1.9v6.5H556.4z"/>
	<path class="st0" d="M564.1,0.2h8.5v1.9h-6.1v5.3h5.8v1.9h-5.8v6.5h6.1v1.9h-8.5V0.2z"/>
	<path class="st0" d="M575.1,11.8h2.4c0.1,2.5,1.1,4.3,2.6,4.4c1.4,0.1,2.6-0.5,2.6-3c0-1.5-0.7-2.2-3.1-3.5
		c-2.6-1.4-3.9-2.3-3.8-5.1c0.1-2.9,2.2-4.6,4.9-4.6c1.9,0,4.6,1.2,4.4,4.9h-2.4c-0.1-1.6-0.7-2.9-2-3c-1.9-0.1-2.5,1.1-2.5,2.7
		c0,2.2,1.9,2.4,4,3.7c1.8,1.2,3,2.2,2.9,5.2c-0.1,3.4-2.3,4.6-5,4.6C577.1,18.1,575.2,15.8,575.1,11.8z"/>
	<path class="st0" d="M590.3,14.2h3.7v3.7h-3.7V14.2z"/>
	<path class="st0" d="M602.8,0.2h2.9l4.3,17.6h-2.3l-1.1-4.6h-4.7l-1.1,4.6h-2.3L602.8,0.2z M606.1,11.5l-1.6-6.6l-0.2-3.1h-0.1
		L604,4.9l-1.6,6.6H606.1z"/>
	<path class="st0" d="M611.6,0.2h3.5c4,0,6.1,0.8,6.1,4.7c0,1.7-0.7,3.2-3.1,3.6v0.1c2.6,0.3,3,2.2,3,6.6v2.6h-2.2l-0.2-0.7v-1.8
		c0-3.7-0.2-5.5-3.2-5.5H614v8h-2.4V0.2z M615.4,8c3.1,0,3.4-1.3,3.4-3c0-1.6-0.4-2.8-3.1-2.8H614V8H615.4z"/>
	<path class="st0" d="M627,2.2h-4.4V0.2h11.3v1.9h-4.4l0,15.7H627L627,2.2z"/>
</g>
</svg>
