<?xml version="1.0" encoding="utf-8"?>
<!-- Generator: Adobe Illustrator 24.3.0, SVG Export Plug-In . SVG Version: 6.00 Build 0)  -->
<svg version="1.1" id="Layer_1" xmlns="http://www.w3.org/2000/svg" xmlns:xlink="http://www.w3.org/1999/xlink" x="0px" y="0px"
	 width="898.5px" height="36.4px" viewBox="0 0 898.5 36.4" style="enable-background:new 0 0 898.5 36.4;" xml:space="preserve">
<style type="text/css">
	.st0{fill:none;stroke:#FFFFFF;stroke-width:0.2;stroke-miterlimit:10;}
	.st1{stroke:#FFFFFF;stroke-width:0.2;stroke-miterlimit:10;}
	.st2{fill:none;stroke:#FFFFFF;stroke-width:0.1;stroke-miterlimit:10;}
	.st3{stroke:#FFFFFF;stroke-width:0.1;stroke-miterlimit:10;}
	.st4{fill:none;stroke:#FFFFFF;stroke-width:0.15;stroke-miterlimit:10;}
</style>
<g>
	<path class="st0" d="M0,0h172.7 M11.4,16.8 M2.3,25l9.1-9.1h147.7l11.4-13.6"/>
	<path class="st1" d="M215.4,0h97.3 M202.7,21.4h118.2 M217.7,2.3l3.2,2.7"/>
	<path class="st0" d="M545.9,15.9h166.8 M543.1,0h172.3 M554.9,24.5h160.9"/>
	<path class="st1" d="M884.9,20.2l11.4-2.9 M728.6,11.4l170,3.4 M725.8,0h173.6"/>
	<path class="st2" d="M172.7,0v25H15.9l-4.5-8.2v19.5H0"/>
	<path class="st2" d="M188.2,36.4h-13.6 M353.6,36.4h-15.9"/>
	<path class="st3" d="M715.8,36.4H543.1"/>
	<path class="st3" d="M898.5,36.4H724.9"/>
	<path class="st4" d="M172.7,0v25 M0,36.4V0"/>
	<path class="st4" d="M545.9,2.3v13.6 M715.4,0v11.4 M543.1,36.4V0"/>
	<path class="st4" d="M725.8,17.3V0 M724.9,36.4V23.6l162.7,5.5l-2.7-8.9 M898.5,14.7v21.6 M899.5,0l-4.1,10.5l-166.8,0.9"/>
	<path class="st4" d="M337.7,36.4l-7.3-6.4 M312.7,0l40.9,36.4 M320.9,21.4L299.1,2.3 M220.9,5l-18.2,16.4"/>
	<line class="st4" x1="174.5" y1="36.4" x2="215.4" y2="0"/>
	<line class="st4" x1="195.4" y1="30" x2="188.2" y2="36.4"/>
	<path class="st4" d="M11.4,16.8 M170.4,2.3l-13.6,9.1 M11.4,11.4L2.3,2.3"/>
	<path class="st0" d="M360.4,0h172.7 M371.8,16.8 M362.7,25l9.1-9.1h147.7l11.4-13.6"/>
	<path class="st2" d="M533.1,0v25H376.3l-4.5-8.2v19.5h-11.4"/>
	<path class="st4" d="M533.1,0v25 M360.4,36.4V0"/>
	<path class="st4" d="M371.8,16.8 M530.9,2.3l-13.6,9.1 M371.8,11.4l-9.1-9.1"/>
	<line class="st4" x1="554.9" y1="11.4" x2="545.9" y2="2.3"/>
	<line class="st4" x1="545.9" y1="20" x2="545.9" y2="34.1"/>
	<line class="st4" x1="712.7" y1="15.9" x2="708.1" y2="20"/>
	<path class="st4" d="M715.8,24.5v11.8"/>
	<line class="st0" x1="545.9" y1="34.1" x2="554.9" y2="24.5"/>
</g>
</svg>
