<?xml version="1.0" encoding="utf-8"?>
<!-- Generator: Adobe Illustrator 24.3.0, SVG Export Plug-In . SVG Version: 6.00 Build 0)  -->
<svg version="1.1" id="Layer_1" xmlns="http://www.w3.org/2000/svg" xmlns:xlink="http://www.w3.org/1999/xlink" x="0px" y="0px"
	 width="303.3px" height="124.7px" viewBox="0 0 303.3 124.7" style="enable-background:new 0 0 303.3 124.7;" xml:space="preserve"
	>
<style type="text/css">
	.st0{fill:url(#SVGID_1_);}
	.st1{fill:url(#SVGID_2_);}
	.st2{fill:#E8E8E8;}
	.st3{fill:url(#SVGID_3_);}
</style>
<g>
	<g>
		<linearGradient id="SVGID_1_" gradientUnits="userSpaceOnUse" x1="151.6532" y1="62.3622" x2="151.6532" y2="0">
			<stop  offset="0" style="stop-color:#BFBFBF"/>
			<stop  offset="1" style="stop-color:#F2F2F2"/>
		</linearGradient>
		<rect class="st0" width="303.3" height="62.4"/>
		<linearGradient id="SVGID_2_" gradientUnits="userSpaceOnUse" x1="151.6532" y1="124.7244" x2="151.6532" y2="62.3622">
			<stop  offset="0" style="stop-color:#BFBFBF"/>
			<stop  offset="1" style="stop-color:#F2F2F2"/>
		</linearGradient>
		<rect y="62.4" class="st1" width="303.3" height="62.4"/>
		<g>
			<g>
				<g>
					<rect y="62" class="st2" width="303.3" height="0.5"/>
				</g>
				<g>
					<rect y="57.9" class="st2" width="303.3" height="0.5"/>
				</g>
				<g>
					<rect y="53.7" class="st2" width="303.3" height="0.5"/>
				</g>
				<g>
					<rect y="49.6" class="st2" width="303.3" height="0.5"/>
				</g>
				<g>
					<rect y="45.5" class="st2" width="303.3" height="0.5"/>
				</g>
				<g>
					<rect y="41.3" class="st2" width="303.3" height="0.5"/>
				</g>
				<g>
					<rect y="37.2" class="st2" width="303.3" height="0.5"/>
				</g>
				<g>
					<rect y="33.1" class="st2" width="303.3" height="0.5"/>
				</g>
				<g>
					<rect y="28.9" class="st2" width="303.3" height="0.5"/>
				</g>
				<g>
					<rect y="24.8" class="st2" width="303.3" height="0.5"/>
				</g>
				<g>
					<rect y="20.7" class="st2" width="303.3" height="0.5"/>
				</g>
				<g>
					<rect y="16.5" class="st2" width="303.3" height="0.5"/>
				</g>
				<g>
					<rect y="12.4" class="st2" width="303.3" height="0.5"/>
				</g>
				<g>
					<rect y="8.3" class="st2" width="303.3" height="0.5"/>
				</g>
				<g>
					<rect y="4.1" class="st2" width="303.3" height="0.5"/>
				</g>
			</g>
		</g>
		<g>
			<g>
				<g>
					<rect y="124.2" class="st2" width="303.3" height="0.5"/>
				</g>
				<g>
					<rect y="120.1" class="st2" width="303.3" height="0.5"/>
				</g>
				<g>
					<rect y="115.9" class="st2" width="303.3" height="0.5"/>
				</g>
				<g>
					<rect y="111.8" class="st2" width="303.3" height="0.5"/>
				</g>
				<g>
					<rect y="107.7" class="st2" width="303.3" height="0.5"/>
				</g>
				<g>
					<rect y="103.5" class="st2" width="303.3" height="0.5"/>
				</g>
				<g>
					<rect y="99.4" class="st2" width="303.3" height="0.5"/>
				</g>
				<g>
					<rect y="95.3" class="st2" width="303.3" height="0.5"/>
				</g>
				<g>
					<rect y="91.1" class="st2" width="303.3" height="0.5"/>
				</g>
				<g>
					<rect y="87" class="st2" width="303.3" height="0.5"/>
				</g>
				<g>
					<rect y="82.9" class="st2" width="303.3" height="0.5"/>
				</g>
				<g>
					<rect y="78.7" class="st2" width="303.3" height="0.5"/>
				</g>
				<g>
					<rect y="74.6" class="st2" width="303.3" height="0.5"/>
				</g>
				<g>
					<rect y="70.5" class="st2" width="303.3" height="0.5"/>
				</g>
				<g>
					<rect y="66.3" class="st2" width="303.3" height="0.5"/>
				</g>
			</g>
		</g>
		<linearGradient id="SVGID_3_" gradientUnits="userSpaceOnUse" x1="72.361" y1="86.4307" x2="231.0492" y2="-72.2575">
			<stop  offset="0" style="stop-color:#CCCCCC"/>
			<stop  offset="0.5238" style="stop-color:#FFFFFF"/>
			<stop  offset="1" style="stop-color:#CCCCCC"/>
		</linearGradient>
		<rect x="0.1" class="st3" width="303.2" height="14.2"/>
	</g>
	<g>
		<path d="M122.9,68.4V56.3h57.6v8.3h-52.3l-1.5-2.7v6.5H122.9z M123.6,64.6l3-3h49.2l3.8-4.5l-4.5,3h-48.5l-3-3V64.6z"/>
	</g>
</g>
</svg>
